<svg aria-hidden="true" style="position: absolute; width: 0; height: 0; overflow: hidden;" version="1.1" xmlns="http://www.w3.org/2000/svg" xmlns:xlink="http://www.w3.org/1999/xlink">
<defs>
<symbol id="icon-mob-menu" viewBox="0 0 32 32">
<path fill="#fff" style="fill: var(--color1, #fff)" d="M26.733 14h-21.466c-0.7 0-1.267 0.425-1.267 0.95v0.1c0 0.525 0.567 0.95 1.267 0.95h21.466c0.7 0 1.267-0.425 1.267-0.95v-0.1c0-0.525-0.567-0.95-1.267-0.95zM26.733 20h-21.466c-0.7 0-1.267 0.425-1.267 0.95v0.1c0 0.525 0.567 0.95 1.267 0.95h21.466c0.7 0 1.267-0.425 1.267-0.95v-0.1c0-0.525-0.567-0.95-1.267-0.95zM26.733 8h-21.466c-0.7 0-1.267 0.425-1.267 0.95v0.1c0 0.525 0.567 0.95 1.267 0.95h21.466c0.7 0 1.267-0.425 1.267-0.95v-0.1c0-0.525-0.567-0.95-1.267-0.95z"></path>
</symbol>
<symbol id="icon-close" viewBox="0 0 32 32"><path d="M32 3.223l-3.223-3.223-12.777 12.777-12.777-12.777-3.223 3.223 12.777 12.777-12.777 12.777 3.223 3.223 12.777-12.777 12.777 12.777 3.223-3.223-12.777-12.777 12.777-12.777z"/></symbol>
<symbol id="icon-mdl-name" viewBox="0 0 32 32">
<path d="M16 16c2.946 0 5.333-2.388 5.333-5.333s-2.388-5.333-5.333-5.333v0c-2.946 0-5.333 2.388-5.333 5.333s2.388 5.333 5.333 5.333v0zM16 18.667c-3.561 0-10.667 1.787-10.667 5.333v1.333c0 0.732 0.599 1.333 1.333 1.333h18.667c0.732 0 1.333-0.601 1.333-1.333v-1.333c0-3.547-7.108-5.333-10.667-5.333z"></path>
</symbol>
</defs>
</svg>
